<svg width="32" height="32" viewBox="0 0 32 32" fill="none" xmlns="http://www.w3.org/2000/svg">
<rect width="32" height="32" fill="#3D0D18"/>
<circle cx="16" cy="16" r="15.5" stroke="#9B3A4E" stroke-opacity="0.4"/>
<path d="M14.2522 16.0265H14.436H19.1587L19.2913 16.3675H14.2941H14.0817L14.2522 16.0265Z" fill="#F5F0E8"/>
<path fill-rule="evenodd" clip-rule="evenodd" d="M16.6013 9.77482L16.5221 9.96542C14.0467 9.96542 11.2452 10.0679 10.4116 10.131C9.57808 10.1942 9.01606 10.3457 8.72558 10.5857C8.44772 10.8256 8.18882 11.3119 7.94886 12.0444C7.94886 12.0697 7.9236 12.0823 7.87308 12.0823C7.83519 12.0823 7.7973 12.076 7.75941 12.0633C7.72152 12.0381 7.70889 12.0191 7.72152 12.0065L8.4793 9.14589C8.4793 9.13326 8.50456 9.12695 8.55508 9.12695C8.68137 9.12695 8.73189 9.14589 8.70663 9.18378C8.694 9.22167 8.68769 9.27219 8.68769 9.33534C8.68769 9.48689 8.75715 9.58793 8.89608 9.63845C9.04763 9.68897 9.34443 9.71423 9.78647 9.71423H16.7012C16.751 9.71423 16.9222 9.74389 16.951 9.80533C16.9323 9.76772 16.7767 9.71799 16.7149 9.71799C16.6644 9.71799 16.6265 9.73693 16.6013 9.77482Z" fill="#F5F0E8"/>
<path fill-rule="evenodd" clip-rule="evenodd" d="M14.436 16.0265H14.2522L14.0817 16.3675H14.2941L13.0018 19.4744C12.825 19.9038 12.7366 20.2575 12.7366 20.5353C12.7366 20.9016 12.8882 21.1668 13.1913 21.331C13.4944 21.4952 13.968 21.5772 14.6121 21.5772C14.6753 21.5772 14.7068 21.6151 14.7068 21.6909C14.7068 21.7667 14.6753 21.8046 14.6121 21.8046C14.3848 21.8046 14.0564 21.7919 13.627 21.7667C13.1471 21.7414 12.7303 21.7288 12.3767 21.7288C12.0609 21.7288 11.6884 21.7414 11.2589 21.7667C10.8801 21.7919 10.5706 21.8046 10.3307 21.8046C10.2675 21.8046 10.2359 21.7667 10.2359 21.6909C10.2359 21.6151 10.2675 21.5772 10.3307 21.5772C10.6843 21.5772 10.9811 21.5141 11.2211 21.3878C11.4737 21.2615 11.7073 21.0342 11.922 20.7058C12.1493 20.3774 12.3893 19.9101 12.6419 19.3039L16.5221 9.96542L16.6013 9.77482C16.6265 9.73693 16.6644 9.71799 16.7149 9.71799C16.7761 9.71799 16.9299 9.76777 16.951 9.80533C16.9516 9.80653 16.9521 9.80773 16.9526 9.80895L16.6581 10.6842L14.436 16.0265Z" fill="#F5F0E8"/>
<path d="M17.1161 21.7495L17.0679 21.7446C17.0936 21.6064 17.1306 21.4537 17.1788 21.2865C17.227 21.1194 17.2833 20.9538 17.3476 20.7898C17.4119 20.6227 17.4794 20.47 17.5501 20.3317C17.624 20.1935 17.698 20.0826 17.7719 19.999C17.8491 19.9154 17.923 19.8736 17.9938 19.8736C18.0355 19.8736 18.0757 19.8849 18.1143 19.9074C18.1561 19.9299 18.1882 19.9604 18.2108 19.999C18.2365 20.0376 18.2445 20.0794 18.2349 20.1244C18.2252 20.1662 18.2075 20.1967 18.1818 20.216C18.1593 20.2321 18.1304 20.2401 18.095 20.2401C18.0468 20.2401 18.0114 20.2273 17.9889 20.2015C17.9696 20.1726 17.952 20.1453 17.9359 20.1196C17.923 20.0906 17.9005 20.0762 17.8684 20.0762C17.8202 20.0762 17.7671 20.1147 17.7092 20.1919C17.6546 20.269 17.5967 20.3703 17.5356 20.4957C17.4746 20.6211 17.4167 20.7593 17.362 20.9104C17.3074 21.0583 17.2576 21.2062 17.2126 21.354C17.1708 21.5019 17.1386 21.6337 17.1161 21.7495ZM16.9956 21.817C16.9538 21.817 16.9264 21.8138 16.9136 21.8073C16.9039 21.8041 16.8991 21.7977 16.8991 21.788C16.8991 21.7784 16.9071 21.7334 16.9232 21.653C16.9425 21.5694 16.9586 21.4923 16.9714 21.4216L17.1209 20.5777C17.1499 20.4298 17.1611 20.3189 17.1547 20.2449C17.1483 20.171 17.1322 20.1212 17.1065 20.0954C17.084 20.0665 17.0582 20.052 17.0293 20.052C16.9811 20.052 16.9296 20.0713 16.875 20.1099C16.8236 20.1485 16.7769 20.1871 16.7352 20.2256C16.7287 20.2321 16.7191 20.2305 16.7062 20.2208C16.6934 20.208 16.6901 20.1967 16.6966 20.1871C16.7866 20.0842 16.8718 20.007 16.9522 19.9556C17.0357 19.9009 17.1177 19.8736 17.1981 19.8736C17.2527 19.8736 17.2945 19.8929 17.3235 19.9315C17.3556 19.9701 17.3733 20.0408 17.3765 20.1437C17.3797 20.2433 17.3636 20.388 17.3283 20.5777L17.1161 21.7495C17.1097 21.7945 17.0695 21.817 16.9956 21.817Z" fill="#F5F0E8"/>
<path d="M20.8751 21.8363C20.8172 21.8363 20.7609 21.8234 20.7063 21.7977C20.6549 21.7752 20.6163 21.7366 20.5906 21.682C20.5648 21.6241 20.56 21.5469 20.5761 21.4505L20.7883 20.3028C20.8108 20.1806 20.8124 20.1067 20.7931 20.081C20.777 20.052 20.7208 20.0376 20.6243 20.0376C20.6115 20.0376 20.6066 20.0279 20.6099 20.0086C20.6131 19.9894 20.6195 19.9797 20.6291 19.9797C20.732 19.9797 20.8204 19.946 20.8944 19.8784C20.9715 19.8109 21.0197 19.7257 21.039 19.6229C21.039 19.6132 21.0519 19.6084 21.0776 19.6084C21.1065 19.6084 21.1194 19.6132 21.1162 19.6229L20.8172 21.2865C20.7915 21.4216 20.7963 21.5212 20.8317 21.5855C20.867 21.6466 20.9345 21.6771 21.0342 21.6771C21.1371 21.6771 21.2255 21.6546 21.2994 21.6096C21.3766 21.5614 21.4489 21.5084 21.5164 21.4505C21.5229 21.4441 21.5325 21.4473 21.5454 21.4601C21.5582 21.473 21.5614 21.4826 21.555 21.4891C21.4103 21.6144 21.2834 21.7045 21.1741 21.7591C21.068 21.8105 20.9683 21.8363 20.8751 21.8363ZM21.5598 20.1244C21.5502 20.1244 21.5132 20.1212 21.4489 20.1147C21.3846 20.1051 21.3091 20.0971 21.2223 20.0906C21.1387 20.081 21.0583 20.0762 20.9812 20.0762L20.9908 19.9701C21.0647 19.9701 21.1515 19.9669 21.2512 19.9604C21.3509 19.954 21.4425 19.9492 21.5261 19.946C21.6097 19.9395 21.6611 19.9363 21.6804 19.9363C21.6932 19.9363 21.7029 19.9395 21.7093 19.946C21.7157 19.9524 21.7174 19.962 21.7141 19.9749C21.7077 20.0006 21.6884 20.0328 21.6563 20.0713C21.6241 20.1067 21.592 20.1244 21.5598 20.1244Z" fill="#F5F0E8"/>
<path d="M24.5232 21.8363C24.356 21.8363 24.2242 21.7929 24.1277 21.7061C24.0313 21.6161 23.967 21.4987 23.9349 21.354C23.9059 21.2094 23.9075 21.0535 23.9397 20.8863C23.959 20.7673 24.0008 20.6468 24.0651 20.5246C24.1326 20.4025 24.2145 20.2915 24.311 20.1919C24.4106 20.089 24.5199 20.007 24.6389 19.946C24.7611 19.8849 24.8897 19.8543 25.0247 19.8543C25.1372 19.8543 25.2208 19.8784 25.2754 19.9267C25.3301 19.9717 25.3494 20.0344 25.3333 20.1147C25.3172 20.1887 25.2722 20.261 25.1983 20.3317C25.1275 20.3992 25.0343 20.4619 24.9186 20.5198C24.8061 20.5745 24.6791 20.6227 24.5376 20.6645C24.3994 20.703 24.2547 20.732 24.1036 20.7513L24.1133 20.6886C24.364 20.6532 24.5746 20.597 24.745 20.5198C24.9186 20.4394 25.0215 20.3382 25.0536 20.216C25.0793 20.126 25.0633 20.0649 25.0054 20.0328C24.9475 20.0006 24.8848 19.9845 24.8173 19.9845C24.7016 19.9845 24.6003 20.0183 24.5135 20.0858C24.4267 20.1533 24.356 20.2433 24.3013 20.3558C24.2499 20.4684 24.2129 20.5921 24.1904 20.7272C24.1551 20.9104 24.1502 21.0744 24.176 21.219C24.2049 21.3605 24.2612 21.473 24.3447 21.5566C24.4315 21.6402 24.5441 21.682 24.6823 21.682C24.7627 21.682 24.8446 21.6707 24.9282 21.6482C25.015 21.6257 25.0986 21.5839 25.179 21.5228C25.1886 21.5164 25.1983 21.5196 25.2079 21.5325C25.2208 21.5453 25.2224 21.5566 25.2127 21.5662C25.0906 21.6627 24.9732 21.7318 24.8607 21.7736C24.7482 21.8154 24.6357 21.8363 24.5232 21.8363Z" fill="#F5F0E8"/>
</svg>
